<svg xmlns="http://www.w3.org/2000/svg" width="21" height="21" viewBox="0 0 21 21">
  <path id="Forma_1" data-name="Forma 1" d="M250,73a3,3,0,1,1,3,3A3,3,0,0,1,250,73Zm-7.5,0a3,3,0,1,1,3,3A3,3,0,0,1,242.5,73ZM235,73a3,3,0,1,1,3,3A3,3,0,0,1,235,73Zm15-7.5a3,3,0,1,1,3,3A3,3,0,0,1,250,65.5Zm-7.5,0a3,3,0,1,1,3,3A3,3,0,0,1,242.5,65.5Zm-7.5,0a3,3,0,1,1,3,3A3,3,0,0,1,235,65.5ZM250,58a3,3,0,1,1,3,3A3,3,0,0,1,250,58Zm-7.5,0a3,3,0,1,1,3,3A3,3,0,0,1,242.5,58ZM235,58a3,3,0,1,1,3,3A3,3,0,0,1,235,58Z" transform="translate(-235 -55)" fill="#e53f86"/>
</svg>
