<svg xmlns="http://www.w3.org/2000/svg" xmlns:xlink="http://www.w3.org/1999/xlink" width="1623.249" height="611.5" viewBox="0 0 1623.249 611.5"><defs><style>.a,.d{fill:none;}.b{clip-path:url(#a);}.c{fill:#5068cc;opacity:0.23;}.d{stroke:#ef40c0;stroke-linecap:round;stroke-linejoin:round;}.e{fill:#8afa6c;opacity:0.28;}.f{fill:#29dc66;}</style><clipPath id="a"><rect class="a" width="1623.249" height="611.5"/></clipPath></defs><g class="b"><path class="c" d="M409.213-370.324,446-389.438l-46-20.886Z" transform="matrix(-1, 0, 0, -1, 1205.999, -370.324)"/><circle class="d" cx="8" cy="8" r="8" transform="translate(7 595)"/><g transform="translate(-399.999 -105.324)"><path class="e" d="M409.213,370.324,446,389.438l-46,20.886Z"/></g><g transform="translate(-164 -168)"><circle class="d" cx="8" cy="8" r="8" transform="translate(1281 242)"/></g><path class="f" d="M1772.987,543.989l-16.46,4.334.008-16.418-16.468,4.339.205-16.273-16.46,4.335.286-16.214-15.112,3.982-.547-1.945,17.792-4.688-.286,16.214,16.447-4.332-.207,16.272,16.437-4.33-.009,16.418,16.448-4.332.086,17.8-2.085.01Z" transform="translate(-164 -168)"/><path class="f" d="M1785.09,528.067,1768.63,532.4l.007-16.418-16.467,4.339.205-16.273-16.461,4.335.286-16.214-15.111,3.982-.548-1.945,17.793-4.688-.286,16.214,16.446-4.332-.206,16.272,16.436-4.33-.008,16.418,16.447-4.332.086,17.8-2.085.01Z" transform="translate(-164 -168)"/></g></svg>