<svg xmlns="http://www.w3.org/2000/svg" xmlns:xlink="http://www.w3.org/1999/xlink" width="20" height="20" viewBox="0 0 20 20">
  <defs>
    <clipPath id="clip-path">
      <rect width="20" height="20" fill="none"/>
    </clipPath>
  </defs>
  <g id="Forma_1" data-name="Forma 1" transform="translate(0 0)" clip-path="url(#clip-path)">
    <path id="Forma_1-2" data-name="Forma 1" d="M701.716,77.258l-4.131-4.132a.347.347,0,0,0-.416-.056,7.958,7.958,0,0,1-9.794-1.22,8.115,8.115,0,1,1,11.477-11.477,7.957,7.957,0,0,1,1.22,9.794.342.342,0,0,0,.047.407l4.141,4.14a1.891,1.891,0,0,1,.289,2.707l-.126.126a1.519,1.519,0,0,1-1.1.452A2.344,2.344,0,0,1,701.716,77.258ZM688.873,61.871a6,6,0,1,0,4.24-1.754A6,6,0,0,0,688.873,61.871Zm7.191,3.246a3.6,3.6,0,0,0-4.715-1.911.837.837,0,1,1-.652-1.543,5.278,5.278,0,0,1,6.91,2.8.837.837,0,1,1-1.543.652Z" transform="translate(-685.002 -58)" fill="#ccc"/>
  </g>
</svg>
